<?xml version="1.0" encoding="UTF-8"?>
<svg id="katman_2" xmlns="http://www.w3.org/2000/svg" viewBox="0 0 2041.6 1512.46">
  <defs>
    <style>
      .cls-1 {
        fill: #232324;
      }

      .cls-2 {
        fill: #3099f9;
      }
    </style>
  </defs>
  <g id="katman_2-2" data-name="katman_2">
    <g>
      <path class="cls-1" d="M495.83,744.81l-189.4,436.23h155.8c15.8-42.58,56.43-70.86,101.88-70.86h39.49c45.45,0,86.08,28.29,101.88,70.86h155.8l-187.6-436.23h-177.84ZM522.82,1019.79l60.45-164.99h1.29l60.45,164.99h-122.2Z"/>
      <polygon class="cls-1" points="1093.46 1181.12 1093.46 1043.63 1287.16 744.81 1118.51 744.81 1020.73 929.98 922.94 744.81 754.29 744.81 948 1043.63 948.07 1043.63 948.07 1181.12 1093.46 1181.12"/>
      <path class="cls-1" d="M1579.23,1181.05h155.8l-187.6-436.23h-177.77l-189.4,436.23h155.8c15.8-42.58,56.43-70.86,101.88-70.86h39.42c45.45,0,86.08,28.29,101.88,70.86ZM1396.51,1019.79l60.45-164.99h1.29l60.45,164.99h-122.2Z"/>
      <path class="cls-1" d="M149.77,1406.2c0,27.5,1.94,63.4-45.09,63.4s-47.39-34.75-47.39-63.04H0c0,40.13,19.96,105.9,105.47,105.9s101.59-51.98,101.59-90.18v-190.26h-57.29v174.18h0Z"/>
      <path class="cls-1" d="M393.87,1224.34c-115.38,0-160.46,67.2-160.46,144.02s45.09,144.02,160.46,144.02,160.46-67.27,160.46-144.02-45.09-144.02-160.46-144.02h0ZM393.8,1469.6c-64.19,0-100.87-41.64-100.87-101.23s36.69-101.23,100.87-101.23,100.87,41.64,100.87,101.23-36.69,101.23-100.87,101.23Z"/>
      <path class="cls-1" d="M788.04,1385.96c0,37.41-1.51,83.64-76.39,83.64s-76.03-45.81-76.03-83.64v-153.93h-57.29v155.51c0,45.45,1.15,124.93,133.33,124.93s133.68-79.84,133.68-124.93v-155.51h-57.29v153.93h0Z"/>
      <path class="cls-1" d="M1104.37,1372.6v-.79c25.99-8.04,45.09-22.9,45.09-65.69s-22.54-74.09-92.04-74.09h-172.74v272.75h57.29v-107.77h97.43c41.64,0,47.39,27.86,47.39,66.48s2.66,33.67,6.89,41.28h61.89c-11.13-15.29-11.49-19.46-11.49-58.44s-7.61-66.84-39.7-73.73ZM1040.97,1354.22h-98.94v-79.48h98.94c30.59,0,48.89,8.76,48.89,39.34s-16.8,40.13-48.89,40.13h0Z"/>
      <polygon class="cls-1" points="1410.8 1436.79 1410.01 1436.79 1247.6 1232.02 1181.91 1232.02 1181.91 1232.02 1181.91 1504.78 1236.91 1504.78 1236.91 1300.02 1237.7 1300.02 1401.25 1504.78 1465.79 1504.78 1465.79 1232.02 1410.8 1232.02 1410.8 1436.79"/>
      <polygon class="cls-1" points="1564.66 1386.39 1736.97 1386.39 1736.97 1343.6 1564.66 1343.6 1564.66 1274.82 1744.22 1274.82 1744.22 1232.02 1507.36 1232.02 1507.36 1232.1 1507.36 1504.85 1747.31 1504.85 1747.31 1462.06 1564.66 1462.06 1564.66 1386.39"/>
      <polygon class="cls-1" points="1971.67 1231.95 1893.7 1353.43 1815.73 1231.95 1745.8 1231.95 1864.98 1400.82 1865.12 1400.82 1865.12 1504.71 1922.42 1504.71 1922.42 1400.82 2041.6 1231.95 1971.67 1231.95"/>
      <g>
        <path class="cls-2" d="M619.46,657.3c1.79,5.67,4.24,11.63,7.4,18.09,3.23,6.46,7.18,13.28,12.06,20.46,6.39,9.48,32.81,21.68,55.35,25.63,5.53.93,10.7,1.44,15.58,1.44,11.49,0,21.11-2.66,28.14-7.9,41.5-30.73,89.31-31.88,135.62-33.03,28.93-.72,56.36-1.36,79.77-9.62,34.32-12.13,47.74-36.19,52.99-54.21,2.58-9.05,1.44-18.45-3.3-26.56-4.74-8.11-12.35-13.78-21.47-15.94l-37.41-8.83c12.06-.93,24.27-1.72,36.47-2.23,12.21-.5,24.48-.79,36.76-.79,24.63,0,34.68.5,51.84,1.51h1.01c-4.95,7.54-9.12,16.87-9.76,27.43-1.01,17.16,7.18,33.6,24.34,48.82,34.96,30.94,71.37,23.62,109.92,15.87,23.55-4.74,47.89-9.62,74.02-6.39,45.38,5.6,97.43,35.68,126.94,54.92h24.99c-22.33-16.01-90.39-61.46-150.2-68.85-28.36-3.52-53.85,1.58-78.55,6.53-36.54,7.32-68.13,13.71-97.86-12.64-13.78-12.21-20.39-24.84-19.67-37.41.65-10.84,6.53-20.32,12.42-27.14h0c153.79,11.85,296.73,62.82,419,142.87h25.92c-50.33-34.68-104.1-64.19-160.97-88.24-87.3-36.9-178.92-59.66-273.11-67.92-2.01-.14-4.09-.36-6.1-.5-3.45-.29-6.82-.5-10.2-.79h-.22c-21.18-1.44-42.5-2.15-63.9-2.15-38.63,0-76.97,2.37-114.8,7.18-.43,0-.86.07-1.22.14-40.85,5.17-81.13,13.14-120.76,23.84-39.63,10.7-78.55,24.05-116.74,40.21-11.63,4.88-23.12,10.05-34.46,15.44-1.65.79-3.37,1.58-5.1,2.44-2.73,1.29-5.53,2.66-8.26,4.02-19.67,9.69-38.99,20.1-57.87,31.16-18.88,11.06-37.33,22.83-55.28,35.18h25.92c29.08-19.1,59.38-36.47,90.68-52.05h.07ZM762.84,600.65c45.09-13.43,91.61-23.33,139.28-29.51l76.32,18.09h-.07c5.38,1.29,9.84,4.59,12.64,9.33,2.8,4.81,3.45,10.34,1.94,15.65-6.25,21.61-21.11,36.76-44.23,44.87-21.32,7.54-47.6,8.18-75.39,8.83-46.17,1.15-98.58,2.37-143.59,35.75-8.69,6.46-22.76,5.67-32.95,3.95-23.19-4.02-43.44-15.58-46.09-19.6-9.69-14.36-15.22-26.71-18.31-37.05,41.79-20.03,85.37-36.9,130.45-50.33h0Z"/>
        <path class="cls-2" d="M665.55,157.81l-5.89,1.72c-5.6,1.65-8.76,7.47-7.18,13.07l5.38,18.31c1.22,4.02,4.59,6.82,8.47,7.47,45.95,157.59,44.44,209.65,43.22,220.49l-4.81,1.44c-2.37.72-3.66,3.16-3.02,5.53l5.74,19.74c.72,2.37,3.16,3.73,5.53,3.02l1.01-.29-7.61,67.56-6.82,2.01c-2.37.72-3.73,3.23-3.02,5.53l5.46,18.74-8.47,45.52c1.65-.65,3.3-1.29,4.88-1.87s3.23-1.22,4.88-1.79l7.11-38.55,54.85-16.08,79.91-23.41,24.2,25.85,5.82,6.25c1.87-.22,3.73-.43,5.53-.57,1.87-.22,3.73-.36,5.67-.5l-6.53-7.04-29.22-31.23h0c0-.07-5.46-18.81-5.46-18.81-.72-2.37-3.23-3.73-5.6-3.02l-6.89,2.01-42.86-52.84,1.01-.29c2.37-.72,3.73-3.16,3.02-5.53l-5.74-19.74c-.72-2.37-3.16-3.73-5.53-3.02l-4.81,1.44c-6.75-8.33-35.75-50.26-82.49-209,2.94-2.58,4.24-6.82,3.09-10.84l-5.31-18.24c-1.65-5.6-7.47-8.76-13-7.18l-5.96,1.72-19.67-67.13c-.72-2.37-3.16-3.73-5.53-3.02s-3.73,3.16-3.02,5.53l19.67,67.06h0ZM837.79,486.64l3.3,11.2-131.46,38.48-3.3-11.2,5.46-1.58,37.33-10.91,45.88-13.43,37.41-10.98,5.38-1.58h0ZM749.91,456.27l14.07-4.09,23.12,40.06-34.96,10.2-2.23-46.17ZM823.43,481.61l-27.5,8.04-25.92-44.94c-1.01-1.79-3.16-2.66-5.17-2.08l-20.82,6.1c-1.94.57-3.3,2.44-3.16,4.52l2.44,51.84-7.9,2.3-19.67,5.74,7.61-67.56,57.22-16.73h0c0-.07,42.86,52.77,42.86,52.77h0ZM780.78,407.23l3.3,11.2-3.09.93-63.18,18.52-3.02.93-3.3-11.2,3.23-.93h0c0-.07,62.89-18.52,62.89-18.52l3.16-.93ZM768.65,401.56l-49.97,14.65c1.08-18.24-1.44-74.6-43.58-219.34l11.85-3.45h0c42.65,144.53,70.93,193.35,81.63,208.14h.07ZM682.5,162.19c.79-.22,1.72.22,1.94,1.08l5.38,18.24c.22.79-.29,1.72-1.08,1.94l-20.39,5.96c-.86.29-1.72-.29-1.94-1.08l-5.38-18.24c-.22-.86.22-1.72,1.08-1.94l20.39-5.96Z"/>
        <path class="cls-2" d="M781.36,537.32c-20.53,6.03-35.18,16.87-43.36,32.09-.14.36-.36.72-.5,1.08-.36.72-.65,1.36-1.01,2.08,2.01-.65,3.95-1.29,5.96-1.94,1.36-.43,2.66-.86,4.02-1.29.93-.36,1.87-.72,2.8-1.08.86-1.15,1.72-2.3,2.66-3.37,7.4-8.62,18.09-14.93,31.95-19.03,12.42-3.59,23.76-4.31,33.82-2.08,2.51.57,4.95,1.29,7.32,2.23,2.44-.5,4.88-1.01,7.32-1.51,2.23-.43,4.38-.86,6.53-1.22-1.22-.79-2.44-1.58-3.81-2.37-.72-.36-1.36-.79-2.08-1.15h0c-14.65-7.32-32.02-8.18-51.62-2.44h0Z"/>
        <polygon class="cls-2" points="1350.2 182.43 1244.3 156.09 1242.29 163.55 1348.33 190.19 1350.2 182.43"/>
        <path class="cls-2" d="M1338.86,191.48l-88.88-22.26-11.27,44.73,88.88,22.26,11.27-44.73ZM1270.79,195h0l-3.95,16.08-15.29-3.88,3.88-16.15c1.22-4.38,5.53-7.18,9.76-5.96,4.16.93,6.82,5.46,5.6,9.91ZM1297.36,201.75h0l-4.02,15.87-15.29-3.73,4.09-16.08c1.01-4.38,5.31-7.18,9.55-6.03,4.24.93,6.89,5.38,5.74,9.98h-.07ZM1323.71,208.28l-4.09,16.01-15.36-3.73,4.16-16.23c.93-4.24,5.38-7.04,9.55-5.89,4.38.93,6.82,5.38,5.74,9.84h0Z"/>
        <path class="cls-2" d="M1282.43,521.17l10.84-42.93,4.38,1.08,2.23-9.12-147.18-36.98-2.15,9.19,4.24,1.08-10.84,42.86,138.5,34.82ZM1150.61,484.48l6.61-25.7c.5-2.08,2.87-3.3,5.38-2.8,2.51.72,4.38,2.87,3.59,4.95l-6.39,25.92-9.19-2.37h0ZM1163.46,487.71l6.61-25.85c.36-1.94,2.94-3.3,5.31-2.51h0c2.66.43,4.31,2.73,3.66,4.88l-6.32,25.85-9.19-2.37h-.07ZM1176.02,490.87l6.61-25.85c.5-2.15,3.09-3.3,5.6-2.73h0c2.37.79,4.16,3.09,3.52,4.95l-6.39,25.85-9.26-2.23h-.07ZM1188.66,494.03l6.61-25.7c.43-2.15,3.02-3.3,5.6-2.73,2.44.65,4.09,2.73,3.59,4.88l-6.61,25.92-9.19-2.37ZM1201.44,497.33l6.39-25.99c.5-2.08,3.09-3.3,5.67-2.51h0c2.51.5,4.02,2.8,3.59,4.95l-6.53,25.7-9.12-2.15h0ZM1214.22,500.49l6.39-25.85c.65-2.15,3.09-3.3,5.6-2.73h0c2.51.65,4.09,2.94,3.66,4.88l-6.61,25.85-8.97-2.15h-.07ZM1226.86,503.65l6.32-25.92c.65-2.01,2.94-3.16,5.6-2.58h0c2.44.65,4.02,2.8,3.59,4.88l-6.61,25.92-8.97-2.3h.07ZM1239.49,506.88l6.39-25.99c.72-2.15,3.09-3.3,5.6-2.58h0c2.58.57,4.16,2.87,3.66,5.03l-6.46,25.7-9.12-2.15h-.07ZM1252.2,510.11l6.39-25.92c.65-2.08,3.16-3.3,5.6-2.73h-.07c2.58.72,4.09,3.02,3.66,4.95l-6.61,25.99-8.97-2.3h0ZM1280.42,489.65l-6.61,25.85-8.97-2.3,6.46-25.85c.5-2.08,2.94-3.45,5.53-2.66,2.44.72,4.02,2.8,3.59,4.95Z"/>
        <path class="cls-2" d="M1186.15,318.34l138.5,34.82,10.84-43.01,4.38,1.08,2.15-8.97-147.25-37.12-2.15,9.19,4.31,1.08-10.84,42.93h.07ZM1206.03,318.06l6.39-25.92c.65-2.08,2.94-3.3,5.53-2.58h0c2.51.57,4.02,2.87,3.59,5.03l-6.61,25.63-8.97-2.15h.07ZM1218.67,321.14l6.32-25.77c.72-2.15,3.16-3.3,5.6-2.87h0c2.58.86,4.16,2.94,3.59,5.1l-6.46,25.85-9.12-2.3h.07ZM1231.45,324.23l6.39-25.85c.65-1.87,3.02-3.3,5.6-2.58h0c2.58.57,4.16,2.94,3.66,5.03l-6.61,25.85-8.97-2.44h-.07ZM1243.94,327.46l6.46-25.85c.65-2.08,3.02-3.3,5.6-2.58h0c2.51.65,4.09,2.94,3.66,4.81l-6.61,25.85-9.12-2.23h0ZM1256.72,330.77l6.61-25.7c.43-2.15,2.87-3.3,5.31-2.73h0c2.58.65,4.16,2.73,3.66,4.88l-6.61,25.85-8.97-2.3ZM1269.43,333.85l6.53-25.85c.43-1.94,2.87-3.3,5.46-2.58h0c2.51.5,4.16,2.87,3.59,5.03l-6.32,25.85-9.19-2.44h-.07ZM1281.92,337.08l6.61-25.77c.5-2.15,2.87-3.3,5.46-2.66,2.51.57,4.02,2.87,3.66,4.81l-6.46,25.85-9.26-2.23h0ZM1294.7,340.24l6.53-25.7c.43-2.15,2.94-3.3,5.38-2.73,2.58.72,4.24,2.8,3.66,4.95l-6.39,25.85-9.19-2.37h0ZM1322.92,320l-6.32,25.63-9.26-2.15,6.53-25.85c.5-2.15,3.09-3.3,5.46-2.66h0c2.51.57,4.24,2.87,3.59,5.03h0ZM1199.79,288.91c.5-1.87,3.16-3.3,5.6-2.58h0c2.58.86,4.16,2.87,3.66,5.03l-6.61,25.85-8.97-2.44,6.39-25.85h-.07Z"/>
        <path class="cls-2" d="M1338.79,297.09l10.7-43.08,4.52,1.15,2.15-8.97-147.25-36.83-2.15,8.83,4.16,1.08-10.77,43.08,138.64,34.75h0ZM1207.61,258.25l6.39-25.77c.57-2.15,2.94-3.3,5.6-2.73h0c2.51.72,4.09,2.8,3.66,4.95l-6.61,25.85-8.97-2.3h-.07ZM1220.18,261.48l6.39-25.85c.72-2.01,3.16-3.45,5.6-2.66h0c2.66.5,4.16,2.8,3.66,4.95l-6.46,25.85-9.12-2.3h-.07ZM1232.89,264.71l6.39-25.92c.57-2.15,3.16-3.3,5.53-2.51,2.66.5,4.16,2.8,3.66,4.81l-6.61,25.85-8.97-2.23ZM1245.67,267.73l6.46-25.77c.57-2.15,2.87-3.3,5.53-2.73h0c2.51.72,4.02,2.87,3.66,4.95l-6.61,25.85-8.97-2.3h-.07ZM1258.23,271.03l6.61-25.85c.5-2.01,2.94-3.45,5.31-2.58,2.66.5,4.16,2.8,3.66,4.88l-6.46,25.85-9.12-2.3h0ZM1270.94,274.26l6.53-25.92c.5-2.08,2.87-3.3,5.46-2.73h0c2.51.72,4.16,3.02,3.66,5.03l-6.32,25.85-9.26-2.23h-.07ZM1283.5,277.35l6.61-25.77c.57-2.15,2.87-3.3,5.53-2.73h0c2.51.72,4.31,2.8,3.66,4.95l-6.53,25.85-9.19-2.3h-.07ZM1296.21,280.65l6.61-25.85c.43-2.3,2.94-3.45,5.38-2.58h0c2.66.36,4.24,2.73,3.59,4.81l-6.32,25.77-9.19-2.15h-.07ZM1308.92,283.88l6.53-25.85c.5-2.3,3.16-3.45,5.46-2.87h0c2.51.72,4.24,3.02,3.66,5.03l-6.39,25.85-9.19-2.15h-.07ZM1337.06,263.28l-6.39,25.85-9.19-2.3,6.53-25.85c.57-2.01,3.16-3.16,5.6-2.58h.07c2.58.72,4.16,2.8,3.37,4.88h0Z"/>
        <polygon class="cls-2" points="1285.8 526.34 1138.62 489.36 1136.39 498.19 1283.72 535.17 1285.8 526.34"/>
        <path class="cls-2" d="M1142.35,526.7c1.58-6.17,8.54-9.48,15.8-7.68,7.11,1.65,11.77,8.11,10.12,14.07l-2.01,7.18c2.3.36,4.59.79,6.89,1.15l1.87-6.61c1.58-6.03,8.62-9.33,15.8-7.54,7.04,1.72,11.56,8.11,10.27,14.07l-1.44,5.1c2.23.5,4.45.93,6.75,1.44l1.36-4.74c1.36-5.96,8.62-9.55,15.72-7.61,7.18,1.79,11.77,8.04,10.34,14.29l-1.15,4.09c2.23.5,4.45,1.08,6.61,1.65l1.15-4.16c1.44-6.17,8.54-9.48,15.72-7.68,7.18,1.87,11.77,8.11,10.41,14.14l-1.29,4.67c1.94.5,3.88,1.08,5.74,1.65l7.18-25.85-138.35-34.82-8.76,31.73,8.54,1.08,2.73-9.62h0Z"/>
        <path class="cls-2" d="M1172.15,374.2l138.5,34.82,10.77-42.93,4.31,1.08,2.44-8.83-147.33-37.05-2.23,9.12,4.24,1.08-10.77,42.72h.07ZM1191.89,374.7l6.39-25.92c.57-2.23,3.02-3.3,5.6-2.8,2.58.72,4.16,3.02,3.59,5.03l-6.61,25.85-8.97-2.15h0ZM1204.45,377.65l6.46-25.85c.43-2.08,3.02-3.37,5.6-2.66h0c2.44.79,4.02,2.87,3.59,5.1l-6.61,25.85-9.12-2.44h.07ZM1217.09,380.95l6.39-25.85c.65-2.15,3.16-3.3,5.6-2.66h0c2.58.72,4.16,2.87,3.59,5.1l-6.46,25.63-9.12-2.23h0ZM1229.87,384.04l6.32-25.63c.65-2.15,3.02-3.3,5.6-2.8h0c2.44.57,4.16,2.94,3.59,4.95l-6.61,25.85-8.97-2.37h.07ZM1242.44,387.27l6.46-25.85c.57-2.01,3.02-3.3,5.6-2.58,2.51.57,4.02,2.8,3.66,5.03l-6.61,25.85-9.12-2.44h0ZM1255.21,390.57l6.53-25.85c.43-2.15,2.94-3.3,5.38-2.66h0c2.58.57,4.16,2.73,3.66,4.81l-6.61,25.85-8.97-2.15ZM1267.85,393.59l6.39-25.7c.5-2.08,2.94-3.3,5.53-2.8h.07c2.51.65,4.02,2.87,3.59,5.03l-6.39,25.85-9.19-2.37h0ZM1280.49,396.82l6.61-25.85c.5-2.01,2.87-3.3,5.38-2.58h0c2.58.57,4.09,2.8,3.59,5.03l-6.39,25.85-9.19-2.44h0ZM1308.78,376.43l-6.39,25.85-9.19-2.15,6.61-25.85c.43-2.23,2.94-3.37,5.31-2.66,2.58.57,4.31,2.8,3.66,4.81h0ZM1185.5,345.63c.5-2.08,3.16-3.3,5.6-2.58h0c2.58.5,4.16,2.73,3.59,4.95l-6.39,25.63-9.26-2.15,6.46-25.85Z"/>
        <path class="cls-2" d="M1158,430.2l138.5,34.82,9.91-43.08h0l5.31,1.36,2.3-8.97-147.25-37.05-2.3,9.05,4.31,1.08-10.84,42.79h.07ZM1177.53,431.21l6.53-25.85c.5-2.01,3.16-3.16,5.6-2.58v-.14c2.3.72,4.09,2.8,3.45,4.95l-6.39,25.99-9.19-2.37h0ZM1190.38,434.44l6.39-25.92c.57-2.23,3.02-3.3,5.6-2.58,2.51.5,4.16,2.8,3.59,4.95l-6.61,25.7-8.97-2.15h0ZM1202.95,437.67l6.39-25.92c.43-2.3,3.09-3.37,5.67-2.8h0c2.44.65,3.95,3.02,3.59,5.03l-6.61,25.85-9.12-2.15h.07ZM1215.66,440.69l6.39-25.85c.65-2.01,3.16-3.16,5.6-2.66,2.58.72,4.16,2.8,3.59,5.03l-6.61,25.85-8.97-2.37h0ZM1228.36,443.92l6.32-25.85c.65-2.23,3.02-3.3,5.6-2.58h0c2.51.5,4.02,2.73,3.59,4.95l-6.61,25.7-8.97-2.23h.07ZM1241,447.15l6.39-25.85c.72-2.23,3.09-3.45,5.6-2.87h0c2.58.72,4.16,3.09,3.66,5.1l-6.53,25.85-9.05-2.23h-.07ZM1253.71,450.23l6.61-25.85c.43-2.01,2.87-3.3,5.31-2.66,2.58.57,4.16,2.8,3.59,4.88l-6.61,25.99-8.9-2.37ZM1266.34,453.54l6.46-25.92c.57-2.23,2.94-3.3,5.53-2.58,2.51.5,4.02,2.8,3.59,4.95l-6.61,25.7-8.97-2.15h0ZM1294.56,433.08l-6.39,25.92-9.19-2.51,6.53-25.56c.5-2.3,2.87-3.45,5.38-2.87h0c2.58.72,4.16,2.8,3.66,5.03h0ZM1171.43,402.2c.43-2.3,3.02-3.37,5.38-2.87h0c2.58.79,4.24,3.09,3.59,5.1l-6.39,25.85-9.19-2.23,6.61-25.85h0Z"/>
        <path class="cls-2" d="M920.43,62.82c0,6.1,4.09,11.2,9.69,12.85v16.66l8.97,63.04c-10.98,26.71-2.44,46.17,3.81,60.38,3.02,6.96,5.67,13,5.67,18.38v25.42c-4.24,5.89-6.68,9.55-6.82,9.69-4.09,6.1-2.44,14.43,3.66,18.6.93.65,2.01,1.15,3.16,1.51v110.85c-5.38,1.72-9.33,6.82-9.33,12.78v23.62h-5.03c-7.4,0-13.35,7.4-13.35,13.35s3.88,11.06,9.33,12.78v69.43c1.36,0,2.8-.22,4.16-.36h.86c1.08-.07,2.23-.22,3.23-.29h0v-60.74h120.55v58.44c1.36,0,2.8.14,4.16.22h0v-.07h.14c1.44.07,2.8.14,4.16.22v-66.63c5.38-1.79,9.26-6.82,9.26-12.78s-5.96-13.35-13.35-13.35h-5.1v-23.62c0-5.96-3.81-10.98-9.19-12.71v-62.46l3.73-2.73.29-.22c.22-.14.5-.36.72-.57l.5-.5c.14-.07.36-.22.43-.36.14-.22.36-.43.5-.65l.29-.36c.14-.22.29-.43.5-.72l.22-.36c.14-.22.29-.36.43-.72,0-.14.22-.29.22-.43l.29-.65c0-.22.22-.36.22-.57l.14-.5c0-.29.22-.5.22-.72s.14-.36.14-.57c0-.29,0-.5.22-.72v-2.58c0-2.15-.79-21.32-3.16-47.31l25.27-42.72h.29c3.52-5.96,1.87-13.71-3.81-17.73l-23.91-16.8c-2.66-1.87-5.82-2.66-8.97-2.37-.72-3.37-1.44-6.68-2.15-9.76-1.01-4.31-4.16-10.12-13.35-13.78-2.51-4.74-4.59-10.91-5.82-17.3v-18.16c0-11.34-9.26-20.61-20.61-20.61h-6.89c-11.34,0-20.61,9.26-20.61,20.61v23.91c-.43,1.65-.79,3.23-1.29,4.81-3.02-1.94-5.74-5.74-7.25-13.78l-2.3-16.15h0c0-.07,5.53-.07,5.53-.07.22,0,.43.07.57.07h-.14c1.58,0,2.8-1.36,2.8-2.87v-4.74c0-9.41,7.97-17.02,17.73-17.02h17.52c9.76,0,17.73,7.61,17.73,17.02v4.16c0,1.01.5,1.87,1.29,2.37.43.29,1.01.5,1.58.5l14.43-.22c1.51,0,2.73-1.29,2.73-2.8s-1.29-2.73-2.8-2.73l-11.63.14v-1.44c0-1.79-.22-3.45-.65-5.1l10.98-4.52c1.44-.57,2.08-2.15,1.51-3.59s-2.15-2.08-3.59-1.51l-10.84,4.45c-.93-1.72-2.08-3.3-3.37-4.81l7.54-9.62c.93-1.15.72-2.94-.5-3.88-1.15-.93-2.94-.72-3.88.5l-7.4,9.48c-1.79-1.22-3.81-2.15-5.89-2.8l2.51-11.13c.36-1.44-.57-2.94-2.08-3.3-1.44-.36-2.94.57-3.3,2.08l-2.58,11.34h-7.54v-11.13c0-1.58-1.22-2.8-2.8-2.8s-2.8,1.29-2.8,2.8v11.13h-7.61l-2.73-11.99c-.29-1.51-1.79-2.44-3.3-2.08s-2.44,1.79-2.08,3.3l2.66,11.77c-2.3.72-4.38,1.72-6.32,3.02l-7.11-9.12c-.93-1.22-2.66-1.44-3.88-.5-1.22.93-1.44,2.66-.5,3.88l7.32,9.41c-1.44,1.58-2.66,3.37-3.59,5.31l-8.47-3.45h0l-3.81-26.71v-14c5.38-1.72,9.19-6.75,9.19-12.71s-1.44-6.89-3.73-9.33c2.08-1.87,3.95-4.31,4.45-7.32.43-2.3.14-5.89-3.37-9.41-12.13-12.21-11.77-23.69-11.63-29.22.07-2.66.14-4.74-1.44-6.39-.86-.86,9.76-1.36-3.3-1.36s-23.76,30.15-23.76,39.92c0,4.16,1.29,8.26,3.59,11.63-3.88,2.37-6.46,5.31-6.46,11.42l.07-.14ZM955.25,136.84l2.51,17.52c2.3,12.42,7.61,19.46,16.87,22.11,1.51.43,3.09,0,4.09-1.01l.14-.14c.36-.43.72-.86.86-1.44,1.22-3.52,2.23-7.04,3.02-10.63v-25.13c0-3.16,1.22-6.03,3.16-8.26.22-.29.5-.5.79-.79,2.23-2.01,5.1-3.23,8.26-3.23h6.89c6.82,0,12.28,5.53,12.28,12.28v19.31c1.44,7.97,4.24,15.87,7.61,21.68.5.86,1.29,1.51,2.23,1.87,5.53,1.79,8.54,4.59,9.48,8.33,1.08,4.38,2.08,9.05,3.02,13.93.22,1.29,1.08,2.37,2.3,2.94,1.22.57,2.66.5,3.81-.14.43-.22.93-.43,1.44-.5,1.36-.29,2.73,0,3.88.79l23.91,16.73c1.22.86,1.94,2.23,2.08,3.59v.5c0,.86-.22,1.79-.72,2.58l-25.99,43.8c-.43.65-.65,1.51-.57,2.3v.22h0c0,.57.07,1.15.14,1.65,0,.5.07,1.01.14,1.51.07.86.14,1.72.22,2.51.14,1.36.22,2.66.36,3.95.14,1.94.29,3.81.43,5.67,0,.57.07,1.08.14,1.65,0,.57.07,1.08.14,1.58,0,.72.14,1.36.14,2.08s.07,1.36.14,2.01c0,.65.07,1.22.14,1.79,0,.36,0,.72.07,1.08.43,6.53.72,11.92.93,15.8v.14c0,1.08.07,2.01.14,2.8v4.81l-.14.29v.22s-.07.29-.14.29v.29h0v.14l2.3,1.08-2.51-.93,1.36.72h0l-1.65-.57,1.01.5h0l-.86-.36h-.07v.07l-.86,1.08-.14.22-5.82,4.31c-1.08.79-1.72,2.08-1.72,3.37v68.13c0,2.3,1.44,4.16,4.16,4.16s5.03,2.3,5.03,5.1v27.79c0,2.3,1.87,4.16,4.16,4.16h9.19c2.8,0,5.1,2.3,5.1,5.03s-.14,1.44-.5,2.08h-138.21c-.07-.14-.14-.36-.22-.5v-.14c0-.14-.07-.22-.14-.36v-1.29c0-1.36.57-2.66,1.44-3.59.57-.57,1.29-1.01,2.08-1.22h0c.14,0,.29-.07.43-.14h10.27c2.3,0,4.16-1.87,4.16-4.16v-28.43h0v-.5h0v-.07c0-.07,0-.14.07-.22v-.07h0v-.43h0c0-.07.07-.22.14-.29,0-.07.14-.22.22-.29h0c0-.07.14-.14.14-.22.07-.07.14-.14.22-.29.14-.14.22-.22.36-.29.14-.14.22-.22.36-.29h0c.14-.07.29-.14.43-.29.07,0,.22-.07.29-.14h0c.14-.07.36-.14.57-.22.14,0,.29-.07.43-.14.14,0,.22,0,.36-.07h0c.57.07,1.22.07,1.79,0h.07s.05,0,0,0c-.07,0,0,0,0,0h.29c10.2-3.09,32.31-13.07,48.82-43.44,1.36-2.51.36-5.6-2.15-6.82-2.37-1.15-5.17-.22-6.46,2.08-12.21,22.47-27.43,32.38-37.26,36.62v-111h0c11.34-4.59,29.58-15.65,43.65-41.64,1.36-2.51.36-5.6-2.15-6.82-2.37-1.15-5.17-.22-6.46,2.08-15.01,27.64-34.68,36.26-43.08,38.77-.29.07-.57.22-.79.36-.29-1.36-.07-2.8.72-4.02.14-.14,2.8-4.16,7.47-10.55.5-.72.79-1.58.79-2.44v-26.85c0-7.11-2.94-13.86-6.39-21.68-6.32-14.5-13.5-30.87-3.3-54.85.29-.72.36-1.44.29-2.23l-9.12-64.04v-.57h-.07c0-.07-3.16.14-3.16.14h0l3.23-.5v-18.45c0-2.3-1.87-4.16-4.16-4.16h-.43c-.29,0-.57,0-.79-.07h-.22c-.14,0-.29,0-.5-.14h0c-.14,0-.36-.14-.5-.22-.07,0-.14,0-.22-.14-.14,0-.22-.07-.29-.14-.07,0-.22-.14-.29-.14-1.29-.86-2.23-2.37-2.23-4.16,0-2.87,2.23-5.1,5.03-5.1h.43c2.23,0,4.02-1.87,4.16-4.09v-.36c0-1.36-.57-2.66-1.72-3.52-3.23-2.37-5.1-6.03-5.1-9.98,0-7.75,6.68-22.83,11.77-28.93.14,7.18,1.79,19.46,14.14,31.88.79.79,1.15,1.51,1.08,2.08-.07.43-.43,1.08-1.01,1.72-.14.22-.36.36-.57.57-1.01.93-2.51,1.94-4.45,2.8-.93.43-1.72,1.22-2.08,2.08,0,0,0,.14-.07.22,0,0,0,.14-.07.22-.22.57-.29,1.22-.22,1.87.22,1.87,1.58,3.3,3.37,3.59,2.44.43,4.16,2.51,4.16,4.95s-.22,1.58-.57,2.23c-1.01,1.58-2.8,2.73-4.45,2.73s-2.23.5-2.94,1.29c-.79.79-1.29,1.79-1.29,2.94v18.38M938.52,464.95v-3.88h120.55v3.88h-120.55ZM1053.11,328.4h.14-.14ZM966.95,129.31v1.94h-4.09l-1.22-8.62,5.74,2.37c-.29,1.36-.43,2.87-.43,4.31h0Z"/>
      </g>
    </g>
  </g>
</svg>