<?xml version="1.0" encoding="UTF-8"?>
<svg xmlns="http://www.w3.org/2000/svg" id="Icons" viewBox="0 0 60 60" width="512" height="512"><path d="M56.608,43.423a3.6,3.6,0,0,0-1.012.155l-3.649,1.208.971-1.352a3.134,3.134,0,0,0-4.647-4.161l-9.964,9.692-7.114-2.627a.272.272,0,0,1-.174-.317l.427-2.2a.277.277,0,0,1,.2-.223l6.378-1.128A3.28,3.28,0,0,0,37.315,36l-11.668.738a7.16,7.16,0,0,0-3.335,1.039l-5.34,3.187A7.608,7.608,0,0,1,13,42H3a3,3,0,0,0-3,3v7a3,3,0,0,0,3,3H17.871l18.275,4.785A7.3,7.3,0,0,0,37.9,60a7.207,7.207,0,0,0,3.4-.855l16.874-9.241a3.458,3.458,0,0,0,1.578-4.318A3.42,3.42,0,0,0,56.608,43.423Zm-6.955-2.7a1.11,1.11,0,0,1,1.49.014A1.163,1.163,0,0,1,51.3,42.26l-2.583,3.594-6.582,2.178Zm7.576,7.427L40.354,57.387a5.2,5.2,0,0,1-3.713.46L18.253,53.032A1.032,1.032,0,0,0,18,53H3a1,1,0,0,1-1-1V45a1,1,0,0,1,1-1H13a9.573,9.573,0,0,0,5-1.32l5.349-3.193a5.173,5.173,0,0,1,2.419-.753L37.182,38h.133a1.249,1.249,0,0,1,1.209,1.021,1.274,1.274,0,0,1-.894,1.491l-6.342,1.12a2.274,2.274,0,0,0-1.8,1.8l-.429,2.205a2.272,2.272,0,0,0,1.437,2.579l7.5,2.768a2.256,2.256,0,0,0,1.467.044l16.731-5.536a1.362,1.362,0,0,1,1.709.831A1.459,1.459,0,0,1,57.229,48.146Z"/><path d="M22,34H46a3,3,0,0,0,3-3V28.24l7.277-14.268A3.991,3.991,0,1,0,52,10c0,.03.008.058.009.087l-3.9,2.985L46.291,8.545A1.729,1.729,0,0,0,45.135,7.5a1.711,1.711,0,0,0-1.515.289l-4.439,3.33L36.958,6.669a4,4,0,1,0-5.916,0l-2.223,4.45L24.39,7.8a1.741,1.741,0,0,0-2.678.741l-1.818,4.534-3.9-2.985c0-.029.009-.057.009-.087a4,4,0,1,0-4.277,3.972L19,28.24V31A3,3,0,0,0,22,34Zm25-3a1,1,0,0,1-1,1H22a1,1,0,0,1-1-1V29H47ZM56,8a2,2,0,1,1-2,2A2,2,0,0,1,56,8ZM44.555,9.589l1.9,4.743-4.1,3.139-2.265-4.533ZM34,2a2,2,0,1,1-2,2A2,2,0,0,1,34,2ZM23.445,9.589l4.466,3.349-2.265,4.533-4.1-3.138Zm1.948,10.205A1,1,0,0,0,26,20a1.087,1.087,0,0,0,.226-.025,1,1,0,0,0,.669-.528L32.727,7.773a3.683,3.683,0,0,0,2.546,0l5.832,11.674a1,1,0,0,0,.669.528A1.094,1.094,0,0,0,42,20a.993.993,0,0,0,.607-.206l10.021-7.663a4,4,0,0,0,1.608,1.441L47.388,27H20.612L13.764,13.572a4.009,4.009,0,0,0,1.608-1.441ZM10,10a2,2,0,1,1,2,2A2,2,0,0,1,10,10Z"/></svg>
